# xmcd
#
# Track frame offsets:
#	150
#	26612
#	35175
#	57435
#	79458
#	111660
#	125362
#	151913
#	182898
#	195513
#	212980
#
# Disc length: 3178 seconds
#
# Revision: 0
# Processed by: cddbd v1.5.1PL0 Copyright (c) Steve Scherf et al.
# Submitted via: MusicWizard 7.0.2
#
DISCID=a40c680b
DTITLE=Henning Mankell - Der Mann, Der Lächelte [CD 2/2)
DYEAR=2002
DGENRE=Hörbuch/Hörspiel
TTITLE0=Der Mann, Der Lächelte
TTITLE1=Der Mann, Der Lächelte
TTITLE2=Der Mann, Der Lächelte
TTITLE3=Der Mann, Der Lächelte
TTITLE4=Der Mann, Der Lächelte
TTITLE5=Der Mann, Der Lächelte
TTITLE6=Der Mann, Der Lächelte
TTITLE7=Der Mann, Der Lächelte
TTITLE8=Der Mann, Der Lächelte
TTITLE9=Der Mann, Der Lächelte
TTITLE10=Der Mann, Der Lächelte
EXTD=
EXTT0=
EXTT1=
EXTT2=
EXTT3=
EXTT4=
EXTT5=
EXTT6=
EXTT7=
EXTT8=
EXTT9=
EXTT10=
PLAYORDER=
